<?xml version="1.0" encoding="utf-8"?>
<!-- Generator: Adobe Illustrator 27.5.0, SVG Export Plug-In . SVG Version: 6.00 Build 0)  -->
<svg version="1.1" xmlns="http://www.w3.org/2000/svg" xmlns:xlink="http://www.w3.org/1999/xlink" x="0px" y="0px"
	 viewBox="0 0 500 500" style="enable-background:new 0 0 500 500;" xml:space="preserve">
<g id="BACKGROUND">
	<rect transform="matrix(-1.836970e-16 1 -1 -1.836970e-16 500 5.684342e-14)" style="fill:#FFE6ED;" width="500" height="500"/>
</g>
<g id="OBJECTS">
	<g>
		<rect style="fill:#FFE6ED;" width="500" height="500"/>
		<path style="fill:#FFFFFF;" d="M120.709,274.988c-0.476,0-0.938,0.048-1.408,0.071c-5.499-7.681-14.474-12.701-24.638-12.701
			c-5.68,0-10.979,1.58-15.517,4.3c-2.073-0.794-4.316-1.248-6.669-1.248c-10.309,0-18.666,8.357-18.666,18.666
			c0,0.401,0.035,0.793,0.06,1.188c-6.383,4.777-10.517,12.394-10.517,20.982c0,14.475,11.734,26.206,26.207,26.206
			c4.077,0,7.923-0.957,11.366-2.62c3.443,1.663,7.288,2.62,11.368,2.62c5.094,0,9.832-1.479,13.856-3.992
			c4.273,2.521,9.238,3.992,14.559,3.992c15.869,0,28.734-12.865,28.734-28.731C149.443,287.853,136.578,274.988,120.709,274.988z"
			/>
		<g>
			<g>
				<defs>
					<path id="SVGID_1_" d="M187.246,171.982v161.159h89.98c0-0.086-0.006-0.168-0.006-0.253
						c-0.087-35.771,28.844-64.848,64.619-64.932c35.773-0.086,64.848,28.843,64.932,64.62c0,0.191-0.012,0.376-0.014,0.565h87.576
						V171.982H187.246z"/>
				</defs>
				<clipPath id="SVGID_00000096756627744639561040000000290737323354172605_">
					<use xlink:href="#SVGID_1_"  style="overflow:visible;"/>
				</clipPath>
				<g style="clip-path:url(#SVGID_00000096756627744639561040000000290737323354172605_);">
					<path style="fill:#F34A6B;" d="M472.621,332.418c0.172,72.139-58.168,130.761-130.308,130.938
						c-72.139,0.174-130.763-58.162-130.937-130.306c-0.177-72.139,58.168-130.761,130.307-130.933
						C413.818,201.941,472.447,260.273,472.621,332.418z"/>
					<path style="fill:#E7B142;" d="M455.66,332.459c0.148,62.773-50.613,113.788-113.388,113.936
						c-62.776,0.151-113.781-50.61-113.937-113.385c-0.153-62.774,50.615-113.784,113.383-113.935
						C404.498,218.921,455.506,269.689,455.66,332.459z"/>
					<path style="fill:#C1DD4E;" d="M440.115,332.496c0.129,54.192-43.689,98.229-97.884,98.358
						c-54.188,0.134-98.222-43.695-98.35-97.881c-0.132-54.192,43.688-98.228,97.874-98.36
						C395.949,234.483,439.98,278.307,440.115,332.496z"/>
					<path style="fill:#ABE4FF;" d="M424.424,332.535c0.107,45.524-36.705,82.523-82.229,82.628
						c-45.52,0.114-82.514-36.702-82.623-82.229c-0.113-45.522,36.701-82.516,82.219-82.629
						C387.32,250.193,424.314,287.013,424.424,332.535z"/>
				</g>
			</g>
			<path style="fill:#FFFFFF;" d="M269.319,310.836c-2.718,0-5.336,0.408-7.824,1.124c-5.803-8.053-15.239-13.314-25.923-13.314
				c-13.208,0-24.543,8.012-29.415,19.439c-12.597,1.117-22.475,11.683-22.475,24.569c0,13.631,11.05,24.681,24.681,24.681
				c5.19,0,10.001-1.61,13.975-4.347c3.975,2.736,8.785,4.347,13.976,4.347c6.058,0,11.597-2.19,15.894-5.811
				c4.751,3.63,10.671,5.811,17.112,5.811c15.602,0,28.249-12.648,28.249-28.249C297.568,323.484,284.921,310.836,269.319,310.836z"
				/>
			<path style="fill:#FFFFFF;" d="M476.771,320.467c-0.406-8.267-7.217-14.849-15.586-14.849c-3.215,0-6.201,0.974-8.685,2.639
				c-4.658-3.491-10.432-5.571-16.701-5.571c-11.324,0-21.053,6.743-25.445,16.422c-12.273,1.158-21.877,11.48-21.877,24.056
				c0,13.35,10.822,24.171,24.17,24.171c3.762,0,7.309-0.884,10.484-2.418c3.174,1.534,6.719,2.418,10.482,2.418
				c4.699,0,9.068-1.364,12.781-3.683c3.94,2.325,8.52,3.683,13.426,3.683c14.637,0,26.502-11.866,26.502-26.5
				C486.322,332.647,482.607,325.328,476.771,320.467z"/>
		</g>
		<g>
			<g>
				<polygon style="fill:#F4A08C;" points="319.39,221.679 309.444,199.836 347.167,182.66 347.167,152.834 371.168,152.834 
					371.168,198.104 				"/>
				<path style="opacity:0.2;fill:#4C2631;" d="M371.168,157.459h-20.316c0,0,17.204,1.197,20.316,10.913V157.459z"/>
				<g>
					<g>
						<path style="fill:#F34A6B;" d="M359.499,107.633c0,0-1.645,34.954-19.354,49.846h38.711
							C361.146,142.587,359.499,107.633,359.499,107.633z"/>
					</g>
				</g>
				<path style="opacity:0.3;fill:#FFFFFF;" d="M340.145,157.479h15.512c3.235-9.729,3.938-31.841,3.984-47.887
					c-0.105-1.241-0.142-1.959-0.142-1.959S357.854,142.587,340.145,157.479z"/>
			</g>
			<path style="fill:#4C2631;" d="M359.444,161.089c-1.859,0-3.366,1.506-3.366,3.366v6.786h6.732v-6.786
				C362.81,162.595,361.304,161.089,359.444,161.089z"/>
			<path style="fill:#4C2631;" d="M359.444,177.59c-1.859,0-3.366,1.506-3.366,3.365v6.787h6.732v-6.787
				C362.81,179.096,361.304,177.59,359.444,177.59z"/>
		</g>
		<g>
			<g>
				<rect x="137.75" y="210.5" style="fill:#FCB39F;" width="50.25" height="43"/>
				<polygon style="fill:#F34A6B;" points="152.667,196.334 133.334,212.167 177,212.167 177.167,196.334 				"/>
			</g>
			<g>
				<path style="fill:#4C2631;" d="M149.482,218.291c-2.342,0-4.241,1.898-4.241,4.241v8.55h8.482v-8.55
					C153.724,220.189,151.826,218.291,149.482,218.291z"/>
				<rect x="149.121" y="217.299" style="fill:#FCB39F;" width="0.725" height="16.07"/>
			</g>
			<g>
				<path style="fill:#4C2631;" d="M163.42,218.291c-2.342,0-4.241,1.898-4.241,4.241v8.55h8.482v-8.55
					C167.661,220.189,165.764,218.291,163.42,218.291z"/>
				<rect x="163.059" y="217.299" style="fill:#FCB39F;" width="0.725" height="16.07"/>
			</g>
		</g>
		<polygon style="fill:#E58C7A;" points="170.346,238.5 170.346,246.966 164.935,246.966 164.935,238.5 157.604,238.5 
			157.604,246.966 152.191,246.966 152.191,238.5 144.861,238.5 144.861,246.966 139.449,246.966 139.449,238.5 132.118,238.5 
			132.118,246.966 126.707,246.966 126.707,238.5 119.376,238.5 119.376,246.966 119.376,250.217 119.376,266.518 125.297,266.518 
			125.297,348.877 171.756,348.877 171.756,266.518 177.677,266.518 177.677,250.217 177.677,246.966 177.677,238.5 		"/>
		<g>
			<g>
				<g>
					<polygon style="fill:#A45834;" points="107.661,351.323 118.116,397.392 126.519,374.069 137.324,416.584 148.93,399.578 
						159.733,449.807 180.943,417.555 198.151,473.31 210.156,402.068 223.363,443.428 238.67,396.419 253.977,481.327 
						269.884,406.259 293.25,456.375 314.904,414.822 340.416,459.463 362.626,397.33 365.227,423.265 392.34,351.232 					"/>
					<polygon style="fill:#964B2D;" points="285.191,354.148 254.325,351.277 248.778,351.278 262.279,362.712 271.385,365.567 
						269.884,406.259 293.25,456.375 293.795,398.849 293.667,358.501 309.802,355.06 					"/>
					<polyline style="fill:#964B2D;" points="335.063,358.612 340.416,459.463 364.828,353.298 323.909,348.499 323.608,356.882 
											"/>
					<polygon style="fill:#964B2D;" points="146.729,353.661 124.719,351.841 138.673,414.606 138.125,359.614 					"/>
					<g>
						<polygon style="fill:#964B2D;" points="245.723,367.632 251.575,361.709 258.628,387.856 264.031,352.326 244.072,353.784 
													"/>
						<polygon style="fill:#964B2D;" points="158.984,385.285 166.508,373.165 169.725,399.699 179.189,378.249 182.217,386.433 
							190.498,361.014 160.262,357.914 						"/>
						<polygon style="fill:#964B2D;" points="206.557,365.627 208.206,379.474 214.06,373.553 221.111,399.699 226.516,364.17 
													"/>
						<polygon style="fill:#964B2D;" points="315.805,359.796 317.456,373.644 323.308,367.723 330.361,393.869 335.764,358.339 
													"/>
					</g>
					<polyline style="fill:#964B2D;" points="377.859,355.697 373.73,384.804 385.213,350.686 376.656,350.731 372.383,352.463 
											"/>
					<path style="opacity:0.5;fill:#964B2D;" d="M238.67,396.419L223.633,442.6l16.238-65.312l3.287,44.031L238.67,396.419z
						 M317.377,419.147l-2.877-31.98l-6.15,40.257l6.555-12.602L317.377,419.147z M185.402,432.001l-2.557-35.582l-10.734,34.568
						l8.832-13.433L185.402,432.001z"/>
				</g>
				<path style="fill:#C1DD4E;" d="M392.34,351.232c0,0-41.418-7.834-144.066-7.834c-102.646,0-140.613,7.925-140.613,7.925
					s12.306,3.098,26.862,4.647c14.557,1.548,0,1.548,4.202,4.828c4.201,3.279,25.011-3.006,61.078,5.922
					c28.852,7.143,78.942,0.672,71.582-1.64c-25.512-8.018,7.203-3.554,31.815-2.916c24.61,0.639,36.043-2.555,31.362-4.282
					c-16.057-5.921,47.572,1.186,43.221-2.642C373.432,351.416,392.34,351.232,392.34,351.232z"/>
			</g>
			<path style="fill:#ADC136;" d="M142.009,347.142c-6.784,1.701-17.602,3.371,4.72,6.52c14.39,2.03,29.074-0.596,42.943,4.329
				c13.869,4.924,59.896,9.32,63.159,4.138c3.264-5.183,18.361-7.929,31.035-4.465c12.676,3.467,41.354,3.563,46.172-2.722
				c2.505-3.268,34.689-1.706,39.421-2.614c2.182-0.417-4.326-2.352-6.762-4.671c-22.964-2.066-60.125-4.258-114.424-4.258
				C198.848,343.398,164.424,345.235,142.009,347.142z"/>
		</g>
		<g>
			<polygon style="fill:#E58C7A;" points="377.012,258.5 377.012,266.966 371.602,266.966 371.602,258.5 364.27,258.5 
				364.27,266.966 358.857,266.966 358.857,258.5 351.527,258.5 351.527,266.966 346.115,266.966 346.115,258.5 338.784,258.5 
				338.784,266.966 333.373,266.966 333.373,258.5 326.042,258.5 326.042,266.966 326.042,270.217 326.042,286.518 384.344,286.518 
				384.344,270.217 384.344,266.966 384.344,258.5 			"/>
			<rect x="331.963" y="275.742" style="fill:#E58C7A;" width="46.459" height="73.135"/>
			<path style="opacity:0.2;fill:#4C2631;" d="M378.422,286.479h-36.318c0,0,33.682,2.318,36.318,22.127V286.479z"/>
		</g>
		<g>
			<g>
				<g>
					<path style="fill:#F34A6B;" d="M213.418,100.761c-0.32-0.052-0.645-0.052-0.967-0.017c-1.207,0.13-2.322,0.671-3.388,1.223
						c-1.257,0.651-2.493,1.473-3.971,1.405c-1.044-0.047-2.134-0.522-3.003-1.078c-0.877-0.559-1.689-1.503-2.785-1.635
						c-0.779-0.094-1.287,0.084-1.832,0.531v5.035c0.689-0.434,1.758-0.352,2.477-0.291c1.362,0.107,2.512,0.861,3.695,1.507
						c0.715,0.39,1.528,0.613,2.346,0.592c2.496-0.065,4.29-2.745,5.478-4.61c0.393-0.574,0.789-1.148,1.328-1.579
						c0.465-0.358,1.04-0.718,1.541-0.825C214.111,100.946,213.646,100.798,213.418,100.761z"/>
				</g>
				<rect x="197.316" y="99.104" style="fill:#F34A6B;" width="0.332" height="21.716"/>
				<path style="fill:#F34A6B;" d="M197.949,99.358c0,0.262-0.213,0.476-0.476,0.476c-0.262,0-0.475-0.214-0.475-0.476
					c0-0.264,0.213-0.477,0.475-0.477C197.736,98.882,197.949,99.095,197.949,99.358z"/>
			</g>
			<g>
				<rect x="185.594" y="150.856" style="fill:#F4A08C;" width="23.81" height="47.077"/>
				<path style="fill:#F34A6B;" d="M197.498,108.323c0,0-1.545,32.835-18.18,46.822h36.361
					C199.045,141.158,197.498,108.323,197.498,108.323z"/>
			</g>
			<path style="opacity:0.3;fill:#FFFFFF;" d="M179.318,155.145h16.825c1.876-11.329,1.73-30,1.202-44.749
				C196.688,117.808,193.445,143.268,179.318,155.145z"/>
			<path style="opacity:0.2;fill:#4C2631;" d="M209.404,155.145h-16.813c0,0,13.674,0.964,16.813,8.54V155.145z"/>
		</g>
		<g>
			<g>
				<g>
					<path style="fill:#F34A6B;" d="M292.392,30.51c-0.728-0.117-1.464-0.117-2.194-0.039c-2.736,0.296-5.269,1.523-7.682,2.773
						c-2.851,1.479-5.657,3.341-9.008,3.188c-2.366-0.107-4.838-1.184-6.81-2.444c-1.988-1.269-3.832-3.409-6.317-3.708
						c-1.767-0.211-2.919,0.191-4.15,1.205v11.418c1.561-0.984,3.983-0.795,5.615-0.66c3.092,0.244,5.696,1.954,8.382,3.418
						c1.621,0.885,3.465,1.391,5.32,1.342c5.66-0.149,9.729-6.227,12.421-10.455c0.895-1.303,1.791-2.606,3.012-3.582
						c1.058-0.813,2.359-1.627,3.499-1.871C293.963,30.931,292.908,30.593,292.392,30.51z"/>
				</g>
				<rect x="255.875" y="26.75" style="fill:#F34A6B;" width="0.75" height="49.25"/>
				<path style="fill:#F34A6B;" d="M257.309,27.328c0,0.596-0.483,1.078-1.079,1.078s-1.079-0.483-1.079-1.078
					s0.483-1.079,1.079-1.079S257.309,26.732,257.309,27.328z"/>
			</g>
			<rect x="229.738" y="146.016" style="fill:#F4A08C;" width="53.19" height="105.167"/>
			<path style="opacity:0.2;fill:#4C2631;" d="M282.929,197.021h-35.992c0,0,31.667,2.181,35.992,20.374V197.021z"/>
			<path style="fill:#F34A6B;" d="M256.333,51c0,0-3.454,73.351-40.614,104.598h81.229C259.788,124.351,256.333,51,256.333,51z"/>
			<path style="opacity:0.3;fill:#FFFFFF;" d="M256.439,52.689c0-0.002,0-0.004-0.001-0.007c-0.055-0.318-0.105-0.604-0.151-0.866
				c-0.007,0.112-0.016,0.239-0.024,0.377c-0.017,0.251-0.037,0.543-0.06,0.868c-0.004,0.05-0.008,0.103-0.012,0.153
				c-0.01,0.131-0.02,0.264-0.031,0.405c-0.007,0.093-0.015,0.19-0.023,0.288c-0.011,0.137-0.021,0.271-0.033,0.416
				c-0.005,0.061-0.011,0.126-0.016,0.188c-0.036,0.442-0.077,0.914-0.124,1.432c-0.001,0.017-0.002,0.033-0.004,0.052
				c-0.002,0.024-0.005,0.05-0.008,0.074c-0.029,0.323-0.061,0.661-0.094,1.013c-0.004,0.037-0.008,0.074-0.012,0.11
				c-0.005,0.055-0.011,0.113-0.016,0.169c-0.237,2.425-0.577,5.46-1.058,8.966c-0.015,0.185-0.039,0.369-0.076,0.555
				c-0.202,1.448-0.428,2.974-0.68,4.566c-0.007,0.041-0.013,0.082-0.019,0.124c-0.247,1.555-0.519,3.17-0.817,4.842
				c-0.016,0.088-0.031,0.177-0.047,0.265c-0.14,0.771-0.283,1.554-0.435,2.348c-0.013,0.063-0.023,0.125-0.036,0.188
				c-0.162,0.853-0.332,1.717-0.509,2.592c-0.016,0.078-0.032,0.158-0.048,0.236c-0.157,0.773-0.32,1.555-0.489,2.343
				c-0.034,0.157-0.067,0.315-0.101,0.474c-0.373,1.727-0.774,3.488-1.205,5.279c-0.049,0.202-0.098,0.404-0.147,0.607
				c-0.189,0.776-0.383,1.557-0.583,2.342c-0.033,0.128-0.064,0.255-0.097,0.383c-0.23,0.894-0.468,1.793-0.713,2.697
				c-0.054,0.199-0.11,0.399-0.165,0.599c-0.202,0.735-0.409,1.474-0.621,2.214c-0.063,0.223-0.126,0.443-0.191,0.666
				c-0.263,0.906-0.532,1.814-0.811,2.727c-0.042,0.135-0.085,0.27-0.126,0.404c-0.242,0.785-0.491,1.57-0.745,2.358
				c-0.084,0.26-0.168,0.517-0.252,0.776c-0.265,0.809-0.536,1.618-0.813,2.429c-0.041,0.119-0.08,0.238-0.121,0.358
				c-0.313,0.903-0.636,1.809-0.966,2.713c-0.094,0.257-0.19,0.514-0.285,0.771c-0.265,0.715-0.535,1.428-0.81,2.141
				c-0.09,0.233-0.178,0.467-0.269,0.699c-0.351,0.896-0.711,1.791-1.08,2.684c-0.088,0.213-0.179,0.425-0.267,0.638
				c-0.299,0.714-0.605,1.427-0.916,2.138c-0.117,0.268-0.233,0.534-0.352,0.801c-0.396,0.891-0.798,1.779-1.213,2.661
				c-0.029,0.062-0.059,0.122-0.088,0.184c-0.393,0.833-0.798,1.661-1.209,2.486c-0.131,0.264-0.264,0.525-0.397,0.788
				c-0.357,0.703-0.72,1.403-1.09,2.1c-0.102,0.191-0.201,0.385-0.304,0.576c-0.458,0.852-0.929,1.697-1.408,2.536
				c-0.129,0.226-0.261,0.448-0.391,0.673c-0.381,0.657-0.769,1.309-1.164,1.957c-0.144,0.237-0.288,0.476-0.434,0.711
				c-0.51,0.823-1.028,1.64-1.56,2.445c-0.086,0.13-0.175,0.258-0.262,0.388c-0.461,0.691-0.931,1.376-1.409,2.054
				c-0.165,0.233-0.33,0.466-0.496,0.697c-0.493,0.686-0.994,1.364-1.504,2.034c-0.084,0.11-0.166,0.224-0.251,0.335
				c-0.585,0.761-1.186,1.508-1.795,2.246c-0.167,0.203-0.338,0.403-0.507,0.605c-0.492,0.584-0.991,1.159-1.497,1.728
				c-0.158,0.178-0.315,0.357-0.475,0.534c-0.642,0.706-1.294,1.399-1.96,2.078c-0.138,0.141-0.279,0.276-0.417,0.415
				c-0.554,0.555-1.117,1.101-1.688,1.637c-0.194,0.182-0.389,0.364-0.585,0.544c-0.708,0.649-1.423,1.288-2.157,1.905h34.509
				C258.967,132.688,256.445,52.894,256.439,52.689z"/>
			<polygon style="fill:#F4A08C;" points="297.723,149.816 297.713,149.816 297.713,142.56 291.429,142.56 291.429,149.816 
				286.791,149.816 286.791,142.56 280.506,142.56 280.506,149.816 275.867,149.816 275.867,142.56 269.582,142.56 269.582,149.816 
				264.944,149.816 264.944,142.56 264.917,142.56 258.662,142.56 258.634,142.56 258.634,149.816 253.996,149.816 253.996,142.56 
				247.71,142.56 247.71,149.816 243.072,149.816 243.072,142.56 236.789,142.56 236.789,149.816 232.15,149.816 232.15,142.56 
				225.867,142.56 225.867,149.816 221.227,149.816 221.227,142.56 214.943,142.56 214.943,149.816 214.943,152.602 
				214.943,157.602 217.932,157.602 224.111,197.188 288.53,197.188 294.708,157.602 297.723,157.602 			"/>
			<path style="fill:#4C2631;" d="M274.247,163.901c2.683,0,4.856,2.089,4.856,4.669v18.658h-9.714V168.57
				C269.39,165.99,271.564,163.901,274.247,163.901z M251.64,168.57v18.658h9.339V168.57c0-2.58-2.09-4.669-4.669-4.669
				S251.64,165.99,251.64,168.57z M222.557,187.229h5.756V168.57c0-2.58-1.672-4.669-3.732-4.669c-2.063,0-3.732,2.089-3.732,4.669
				v7.715L222.557,187.229z M233.973,168.57v18.658h9.715V168.57c0-2.58-2.176-4.669-4.857-4.669
				C236.146,163.901,233.973,165.99,233.973,168.57z M292.228,173.491v-4.921c0-2.58-1.67-4.669-3.731-4.669
				c-2.062,0-3.733,2.089-3.733,4.669v18.658h5.319L292.228,173.491z"/>
		</g>
		<g>
			<g>
				<g>
					<path style="fill:#F34A6B;" d="M333.012,100.113c-0.457-0.074-0.92-0.074-1.379-0.024c-1.719,0.186-3.309,0.956-4.825,1.741
						c-1.79,0.93-3.553,2.099-5.657,2.003c-1.486-0.067-3.04-0.745-4.278-1.536c-1.249-0.797-2.407-2.141-3.968-2.328
						c-1.11-0.134-1.834,0.119-2.608,0.756v7.172c0.981-0.617,2.503-0.499,3.528-0.414c1.941,0.154,3.578,1.228,5.265,2.147
						c1.018,0.556,2.177,0.874,3.342,0.843c3.556-0.094,6.111-3.911,7.803-6.568c0.561-0.817,1.124-1.636,1.892-2.249
						c0.664-0.511,1.482-1.022,2.197-1.176C333.999,100.377,333.336,100.165,333.012,100.113z"/>
				</g>
				<rect x="310.073" y="97.752" style="fill:#F34A6B;" width="0.472" height="30.935"/>
				<path style="fill:#F34A6B;" d="M310.975,98.114c0,0.374-0.304,0.678-0.679,0.678c-0.374,0-0.677-0.304-0.677-0.678
					c0-0.374,0.303-0.678,0.677-0.678C310.671,97.437,310.975,97.74,310.975,98.114z"/>
			</g>
			<g>
				<rect x="293.372" y="174.783" style="fill:#F4A08C;" width="33.921" height="67.066"/>
				<path style="fill:#F34A6B;" d="M310.332,114.189c0,0-2.202,46.776-25.9,66.703h51.802
					C312.535,160.966,310.332,114.189,310.332,114.189z"/>
				<path style="opacity:0.3;fill:#FFFFFF;" d="M284.432,180.893h21.796c5.166-13.887,4.266-58.02,4.059-65.936
					C309.879,121.082,306.347,162.465,284.432,180.893z"/>
			</g>
			<path style="opacity:0.2;fill:#4C2631;" d="M327.293,180.881h-20.295c0,0,17.138,1.194,20.295,10.861V180.881z"/>
		</g>
		<g>
			<polygon style="fill:#FFBFAA;" points="219.576,174.404 219.576,182.87 214.165,182.87 214.165,174.404 206.834,174.404 
				206.834,182.87 201.422,182.87 201.422,174.404 194.092,174.404 194.092,182.87 188.68,182.87 188.68,174.404 181.349,174.404 
				181.349,182.87 175.938,182.87 175.938,174.404 168.606,174.404 168.606,182.87 168.606,186.119 168.606,202.42 226.907,202.42 
				226.907,186.119 226.907,182.87 226.907,174.404 			"/>
			<rect x="174.527" y="191.646" style="fill:#FFBFAA;" width="46.459" height="56.521"/>
			<path style="opacity:0.2;fill:#4C2631;" d="M220.986,202.422h-22.47c0,0,18.591,1.304,22.47,11.689V202.422z"/>
			<path style="fill:#4C2631;" d="M197.757,207.59c-2.964,0-5.366,2.4-5.366,5.365v10.818h10.732v-10.818
				C203.123,209.99,200.722,207.59,197.757,207.59z"/>
		</g>
		<g>
			<polygon style="fill:#FCB39F;" points="325.45,224.834 325.45,231.328 321.299,231.328 321.299,224.834 315.673,224.834 
				315.673,231.328 311.52,231.328 311.52,224.834 305.896,224.834 305.896,231.328 301.744,231.328 301.744,224.834 
				296.119,224.834 296.119,231.328 291.966,231.328 291.966,224.834 291.936,224.834 286.341,224.834 286.311,224.834 
				286.311,231.328 282.16,231.328 282.16,224.834 276.534,224.834 276.534,231.328 272.382,231.328 272.382,224.834 
				266.757,224.834 266.757,231.328 262.605,231.328 262.605,224.834 256.98,224.834 256.98,231.328 252.827,231.328 
				252.827,224.834 252.798,224.834 247.202,224.834 247.174,224.834 247.174,231.328 243.021,231.328 243.021,224.834 
				237.395,224.834 237.395,231.328 233.243,231.328 233.243,224.834 227.618,224.834 227.618,231.328 223.467,231.328 
				223.467,224.834 217.841,224.834 217.841,231.328 213.689,231.328 213.689,224.834 213.659,224.834 208.064,224.834 
				208.033,224.834 208.033,231.328 203.882,231.328 203.882,224.834 198.257,224.834 198.257,231.328 194.104,231.328 
				194.104,224.834 188.479,224.834 188.479,231.328 184.327,231.328 184.327,224.834 178.701,224.834 178.701,231.328 
				174.55,231.328 174.55,224.834 168.925,224.834 168.925,231.328 168.925,233.821 168.925,240.94 174.417,240.94 174.417,326.334 
				325.583,326.334 325.583,240.94 331.075,240.94 331.075,233.821 331.075,231.328 331.075,224.834 			"/>
			<g>
				<path style="fill:#4C2631;" d="M207.611,252.256c-1.859,0-3.366,1.506-3.366,3.366v6.786h6.732v-6.786
					C210.977,253.762,209.471,252.256,207.611,252.256z"/>
				<path style="fill:#4C2631;" d="M225.611,252.256c-1.859,0-3.366,1.506-3.366,3.366v6.786h6.732v-6.786
					C228.977,253.762,227.471,252.256,225.611,252.256z"/>
				<path style="fill:#4C2631;" d="M243.611,252.256c-1.859,0-3.366,1.506-3.366,3.366v6.786h6.732v-6.786
					C246.977,253.762,245.471,252.256,243.611,252.256z"/>
				<path style="fill:#4C2631;" d="M261.611,252.256c-1.859,0-3.366,1.506-3.366,3.366v6.786h6.732v-6.786
					C264.978,253.762,263.471,252.256,261.611,252.256z"/>
				<path style="fill:#4C2631;" d="M279.611,252.256c-1.859,0-3.366,1.506-3.366,3.366v6.786h6.732v-6.786
					C282.977,253.762,281.471,252.256,279.611,252.256z"/>
				<path style="fill:#4C2631;" d="M297.611,252.256c-1.859,0-3.366,1.506-3.366,3.366v6.786h6.732v-6.786
					C300.977,253.762,299.471,252.256,297.611,252.256z"/>
			</g>
		</g>
		<g>
			<rect x="162.914" y="271.366" style="fill:#FFBFAA;" width="33.921" height="30.55"/>
			<path style="opacity:0.2;fill:#4C2631;" d="M196.835,277.242h-22.693c0,0,18.049,1.27,22.693,11.15V277.242z"/>
			<g>
				<g>
					<path style="fill:#F34A6B;" d="M202.616,199.111c-0.457-0.073-0.92-0.073-1.379-0.023c-1.719,0.186-3.309,0.957-4.825,1.742
						c-1.79,0.928-3.553,2.098-5.657,2.002c-1.486-0.067-3.04-0.744-4.278-1.535c-1.249-0.798-2.407-2.143-3.968-2.329
						c-1.11-0.134-1.834,0.119-2.608,0.756v7.173c0.981-0.618,2.503-0.5,3.528-0.414c1.941,0.152,3.578,1.227,5.265,2.146
						c1.019,0.556,2.177,0.873,3.342,0.843c3.556-0.094,6.111-3.911,7.803-6.567c0.562-0.818,1.124-1.637,1.892-2.25
						c0.664-0.511,1.482-1.022,2.197-1.176C203.604,199.377,202.94,199.164,202.616,199.111z"/>
				</g>
				<rect x="179.678" y="196.75" style="fill:#F34A6B;" width="0.472" height="30.937"/>
				<path style="fill:#F34A6B;" d="M180.579,197.113c0,0.374-0.304,0.678-0.679,0.678c-0.374,0-0.677-0.304-0.677-0.678
					c0-0.375,0.303-0.678,0.677-0.678C180.275,196.436,180.579,196.738,180.579,197.113z"/>
			</g>
			<path style="fill:#F34A6B;" d="M179.874,210.773c0,0-2.202,46.776-25.9,66.704h51.802
				C182.077,257.549,179.874,210.773,179.874,210.773z"/>
			<path style="opacity:0.3;fill:#FFFFFF;" d="M179.691,213.328c-0.857,10.032-5.341,47.015-25.717,64.148h21.907
				C180.655,262.807,179.923,222.44,179.691,213.328z"/>
		</g>
		<g>
			<polygon style="fill:#FFBFAA;" points="357.68,194.237 357.68,202.703 352.269,202.703 352.269,194.237 344.938,194.237 
				344.938,202.703 339.525,202.703 339.525,194.237 332.195,194.237 332.195,202.703 326.783,202.703 326.783,194.237 
				319.452,194.237 319.452,202.703 314.041,202.703 314.041,194.237 306.71,194.237 306.71,202.703 306.71,205.953 306.71,222.254 
				365.012,222.254 365.012,205.953 365.012,202.703 365.012,194.237 			"/>
			<rect x="312.631" y="211.48" style="fill:#FFBFAA;" width="46.459" height="91.854"/>
			<path style="opacity:0.2;fill:#4C2631;" d="M359.09,222.375h-36.715c0,0,36.5,2.5,36.5,24.625c0,2.02,0.077,3.561,0.215,4.704
				V222.375z"/>
			<path style="fill:#4C2631;" d="M335.86,231.756c-2.964,0-5.366,2.401-5.366,5.366v10.817h10.733v-10.817
				C341.227,234.157,338.825,231.756,335.86,231.756z"/>
			<path style="fill:#4C2631;" d="M335.86,259.034c-2.964,0-5.366,2.4-5.366,5.366v10.816h10.733V264.4
				C341.227,261.435,338.825,259.034,335.86,259.034z"/>
		</g>
		<g>
			<path style="fill:#FFD3C7;" d="M357.285,288.551v9.235h-5.903v-9.235h-7.999v9.235h-5.904v-9.235h-7.998v9.235h-5.903v-9.235
				h-7.999v9.235h-5.905v-9.235h-0.042h-7.956h-0.043v9.235h-5.903v-9.235h-7.999v9.235h-5.904v-9.235h-7.998v9.235h-5.903v-9.235
				h-7.999v9.235h-5.905v-9.235h-0.041h-7.957h-0.041v9.235h-5.904v-9.235h-7.999v9.235h-5.903v-9.235h-7.999v9.235h-5.904v-9.235
				h-7.999v9.235h-5.903v-9.235h-0.043h-7.956h-0.043v9.235h-5.903v-9.235h-7.999v9.235h-5.904v-9.235h-7.998v9.235h-5.904v-9.235
				h-7.999v9.235h-5.903v-9.235h-7.998v9.235v3.545v10.123h7.809v37.415c0,0,45.8,5.839,107.475,5.839s107.475-5.839,107.475-5.839
				v-37.415h7.811v-10.123v-3.545v-9.235H357.285z"/>
			<path style="opacity:0.2;fill:#4C2631;" d="M357.313,336.063c0,1.724,0.059,3.08,0.161,4.157v-28.766h0.054v-0.017h-36.715
				C320.814,311.438,357.313,313.938,357.313,336.063z"/>
			<path style="fill:#4C2631;" d="M250,317.555c-16.48,0-29.887,13.406-29.887,29.887v6.818c9.408,0.279,19.418,0.448,29.887,0.448
				c10.469,0,20.478-0.169,29.887-0.448v-6.818C279.887,330.961,266.479,317.555,250,317.555z"/>
		</g>
		<g>
			<g>
				<circle style="fill:#ADC136;" cx="351.602" cy="348.533" r="3.25"/>
				<circle style="fill:#ADC136;" cx="340.29" cy="348.971" r="3.25"/>
				<path style="fill:#ADC136;" d="M350.165,346.752c0,2.571-2.085,4.656-4.656,4.656s-4.656-2.085-4.656-4.656
					c0-2.572,2.085-4.656,4.656-4.656S350.165,344.18,350.165,346.752z"/>
			</g>
			<g>
				<path style="fill:#ADC136;" d="M207.473,352.41c-0.204,1.783-1.814,3.063-3.598,2.86c-1.783-0.203-3.064-1.814-2.86-3.597
					c0.204-1.784,1.814-3.064,3.598-2.861S207.677,350.626,207.473,352.41z"/>
				<path style="fill:#ADC136;" d="M198.101,352.021c-0.203,1.783-1.814,3.064-3.598,2.859c-1.783-0.203-3.063-1.814-2.86-3.597
					c0.204-1.783,1.814-3.064,3.598-2.86C197.023,348.626,198.304,350.237,198.101,352.021z"/>
				<path style="fill:#ADC136;" d="M204.441,350.448c-0.342,2.992-3.044,5.142-6.036,4.8c-2.992-0.341-5.14-3.044-4.799-6.036
					c0.342-2.992,3.044-5.14,6.036-4.799C202.634,344.755,204.782,347.456,204.441,350.448z"/>
			</g>
			<g>
				<path style="fill:#ADC136;" d="M314.852,352.665c0,2.299-1.863,4.162-4.162,4.162c-2.299,0-4.163-1.863-4.163-4.162
					c0-2.299,1.864-4.162,4.163-4.162C312.989,348.503,314.852,350.366,314.852,352.665z"/>
				<circle style="fill:#ADC136;" cx="308.107" cy="349.415" r="4.162"/>
				<path style="fill:#ADC136;" d="M300.365,353.226c0,2.299-1.864,4.162-4.163,4.162c-2.299,0-4.162-1.863-4.162-4.162
					c0-2.299,1.863-4.162,4.162-4.162C298.501,349.064,300.365,350.927,300.365,353.226z"/>
				<path style="fill:#ADC136;" d="M308.85,350.384c0,3.293-2.67,5.964-5.964,5.964c-3.294,0-5.963-2.671-5.963-5.964
					c0-3.294,2.669-5.963,5.963-5.963C306.18,344.421,308.85,347.09,308.85,350.384z"/>
			</g>
			<g>
				<path style="fill:#ADC136;" d="M183.921,349.839c-0.187,2.291-2.196,3.996-4.487,3.809c-2.291-0.188-3.997-2.196-3.81-4.487
					c0.188-2.291,2.197-3.997,4.488-3.81C182.403,345.538,184.108,347.548,183.921,349.839z"/>
				<path style="fill:#ADC136;" d="M180.799,347.826c-0.188,2.291-2.197,3.996-4.488,3.81c-2.291-0.188-3.997-2.197-3.809-4.488
					c0.188-2.291,2.197-3.996,4.488-3.809C179.281,343.525,180.987,345.535,180.799,347.826z"/>
				<path style="fill:#ADC136;" d="M170.612,345.826c-0.188,2.291-2.197,3.996-4.488,3.81c-2.291-0.188-3.997-2.197-3.809-4.488
					c0.188-2.291,2.197-3.996,4.488-3.809C169.094,341.525,170.799,343.535,170.612,345.826z"/>
				<path style="fill:#ADC136;" d="M171.987,349.514c-0.188,2.291-2.197,3.996-4.488,3.81c-2.291-0.188-3.997-2.197-3.809-4.488
					c0.188-2.291,2.197-3.996,4.488-3.809C170.469,345.213,172.174,347.223,171.987,349.514z"/>
				<path style="fill:#ADC136;" d="M180.112,350.076c-0.188,2.291-2.197,3.996-4.488,3.81c-2.291-0.188-3.997-2.197-3.809-4.488
					c0.188-2.291,2.197-3.996,4.488-3.809C178.594,345.775,180.299,347.785,180.112,350.076z"/>
				<path style="fill:#ADC136;" d="M167.561,349.216c-0.188,2.291-2.197,3.997-4.488,3.81c-2.291-0.188-3.996-2.197-3.809-4.488
					c0.188-2.291,2.196-3.996,4.487-3.809C166.043,344.916,167.748,346.925,167.561,349.216z"/>
				<path style="fill:#ADC136;" d="M178.123,347.076c-0.268,3.281-3.147,5.727-6.429,5.458c-3.283-0.269-5.725-3.148-5.457-6.431
					c0.269-3.283,3.147-5.726,6.43-5.457C175.949,340.915,178.392,343.793,178.123,347.076z"/>
			</g>
		</g>
		<g>
			<g>
				<path style="fill:#4C2631;" d="M158.611,321.506c-1.859,0-3.366,1.506-3.366,3.366v6.786h6.732v-6.786
					C161.977,323.012,160.471,321.506,158.611,321.506z"/>
				<path style="fill:#4C2631;" d="M186.111,321.506c-1.859,0-3.366,1.506-3.366,3.366v6.786h6.732v-6.786
					C189.477,323.012,187.971,321.506,186.111,321.506z"/>
			</g>
			<g>
				<path style="fill:#4C2631;" d="M313.111,321.506c-1.859,0-3.366,1.506-3.366,3.366v6.786h6.732v-6.786
					C316.477,323.012,314.971,321.506,313.111,321.506z"/>
				<path style="fill:#4C2631;" d="M340.611,321.506c-1.859,0-3.366,1.506-3.366,3.366v6.786h6.732v-6.786
					C343.977,323.012,342.471,321.506,340.611,321.506z"/>
			</g>
		</g>
		<g>
			<g>
				<defs>
					<path id="SVGID_00000070837624508081190090000005011606303081497743_" d="M55.352,10.038v90.515h50.536
						c0-0.047-0.003-0.095-0.003-0.142c-0.048-20.09,16.201-36.42,36.294-36.469c20.093-0.047,36.421,16.201,36.468,36.295
						c0,0.105-0.006,0.211-0.007,0.316H237V10.038H55.352z"/>
				</defs>
				<clipPath id="SVGID_00000052084187172522101440000010196125657578224558_">
					<use xlink:href="#SVGID_00000070837624508081190090000005011606303081497743_"  style="overflow:visible;"/>
				</clipPath>
				<g style="clip-path:url(#SVGID_00000052084187172522101440000010196125657578224558_);">
					<path style="fill:#F34A6B;" d="M215.63,100.146c0.098,40.517-32.669,73.441-73.186,73.541
						c-40.516,0.097-73.442-32.667-73.54-73.187c-0.099-40.517,32.669-73.441,73.186-73.538
						C182.604,26.864,215.533,59.627,215.63,100.146z"/>
					<path style="fill:#E7B142;" d="M206.105,100.17c0.084,35.256-28.427,63.908-63.685,63.991
						c-35.257,0.085-63.905-28.425-63.992-63.683c-0.086-35.257,28.428-63.906,63.682-63.99
						C177.369,36.401,206.018,64.914,206.105,100.17z"/>
					<path style="fill:#C1DD4E;" d="M197.375,100.189c0.072,30.438-24.539,55.171-54.977,55.243
						c-30.434,0.075-55.166-24.541-55.239-54.974c-0.074-30.438,24.538-55.17,54.971-55.244
						C172.568,45.143,197.299,69.755,197.375,100.189z"/>
					<path style="fill:#ABE4FF;" d="M188.561,100.213c0.061,25.568-20.614,46.348-46.183,46.406
						c-25.566,0.064-46.343-20.613-46.405-46.184c-0.063-25.566,20.613-46.344,46.178-46.407
						C167.722,53.967,188.499,74.645,188.561,100.213z"/>
				</g>
			</g>
			<path style="fill:#FFFFFF;" d="M101.448,88.025c-1.527,0-2.997,0.229-4.395,0.631c-3.259-4.524-8.559-7.479-14.56-7.479
				c-7.418,0-13.783,4.5-16.52,10.918c-7.075,0.628-12.623,6.563-12.623,13.8c0,7.655,6.206,13.861,13.861,13.861
				c2.916,0,5.617-0.904,7.85-2.441c2.233,1.537,4.934,2.441,7.849,2.441c3.402,0,6.514-1.229,8.926-3.264
				c2.67,2.039,5.994,3.264,9.612,3.264c8.762,0,15.865-7.103,15.865-15.865S110.21,88.025,101.448,88.025z"/>
			<path style="fill:#FFFFFF;" d="M206.817,89.989c-0.247,0-0.487,0.024-0.73,0.036c-2.85-3.977-7.498-6.578-12.764-6.578
				c-3.594,0-6.9,1.211-9.543,3.244c-1.324-0.936-2.935-1.489-4.679-1.489c-4.487,0-8.125,3.638-8.125,8.125
				c0,0.919,0.16,1.8,0.441,2.623c-2.858,2.487-4.672,6.144-4.672,10.231c0,7.497,6.078,13.575,13.575,13.575
				c2.113,0,4.105-0.497,5.888-1.357c1.783,0.86,3.775,1.357,5.889,1.357c2.639,0,5.094-0.766,7.178-2.067
				c2.214,1.305,4.786,2.067,7.542,2.067c8.22,0,14.884-6.664,14.884-14.884C221.701,96.653,215.037,89.989,206.817,89.989z"/>
		</g>
		<g>
			<path style="fill:#FFFFFF;" d="M417.988,86.914c-1.754-13.449-13.248-23.838-27.178-23.838c-9.43,0-17.748,4.764-22.682,12.015
				c-0.189-0.005-0.377-0.015-0.568-0.015c-12.795,0-23.166,10.372-23.166,23.167c0,2.419,0.371,4.751,1.059,6.943
				c-1.393,2.682-2.186,5.725-2.186,8.956c0,10.758,8.721,19.476,19.477,19.476c3.031,0,5.889-0.711,8.447-1.947
				c2.559,1.236,5.416,1.947,8.449,1.947c3.785,0,7.307-1.1,10.297-2.967c3.176,1.874,6.867,2.967,10.82,2.967
				c2.682,0,5.238-0.516,7.604-1.419c1.824,0.462,3.732,0.709,5.699,0.709c12.795,0,23.168-10.37,23.168-23.166
				C437.228,98.287,428.912,88.78,417.988,86.914z"/>
			<path style="fill:#FFFFFF;" d="M144.493,162.799c-2.196-8.465-9.864-14.723-19.015-14.723c-5.3,0-10.1,2.106-13.637,5.516
				c-5.739,0.109-10.722,3.267-13.41,7.926c-6.355,2.059-10.954,8.018-10.954,15.059c0,8.745,7.089,15.833,15.833,15.833
				c1.329,0,2.613-0.182,3.846-0.49c0.529,0.06,1.065,0.097,1.61,0.097c2.223,0,4.32-0.521,6.197-1.43
				c1.877,0.908,3.974,1.43,6.198,1.43c2.777,0,5.361-0.807,7.555-2.177c2.33,1.375,5.037,2.177,7.939,2.177
				c8.653,0,15.667-7.015,15.667-15.666C152.322,170.556,149.169,165.509,144.493,162.799z"/>
			<path style="fill:#FFFFFF;" d="M107.701,403.746c0.485,0,0.959,0.05,1.44,0.072c5.624-7.855,14.804-12.991,25.201-12.991
				c12.558,0,23.347,7.479,28.22,18.213c13.609,1.284,24.26,12.732,24.26,26.678c0,14.805-12,26.807-26.805,26.807
				c-4.17,0-8.104-0.98-11.626-2.682c-3.521,1.701-7.452,2.682-11.626,2.682c-5.211,0-10.057-1.514-14.174-4.085
				c-4.37,2.579-9.45,4.085-14.891,4.085c-16.232,0-29.39-13.16-29.39-29.39C78.311,416.903,91.468,403.746,107.701,403.746z"/>
			<path style="fill:#FFFFFF;" d="M403.885,407.256c0.031-0.487,0.051-0.977,0.051-1.472c0-12.841-10.408-23.25-23.25-23.25
				c-7.225,0-13.68,3.295-17.944,8.465c-5.825,0.527-10.907,3.607-14.134,8.112c-0.303-0.014-0.603-0.045-0.909-0.045
				c-10.248,0-18.556,8.308-18.556,18.555s8.308,18.556,18.556,18.556c3.436,0,6.643-0.95,9.402-2.579
				c2.599,1.624,5.658,2.579,8.948,2.579c2.637,0,5.117-0.618,7.34-1.692c2.225,1.074,4.707,1.692,7.342,1.692
				c1.496,0,2.941-0.214,4.324-0.579c1.77,0.598,3.66,0.936,5.631,0.936c9.734,0,17.625-7.89,17.625-17.624
				C408.31,414.435,406.631,410.364,403.885,407.256z"/>
		</g>
	</g>
	<g>
		<path style="fill:#FFFFFF;" d="M256.478,97.908c-7.929,0.729-8.52,1.321-9.25,9.25c-0.73-7.929-1.321-8.521-9.25-9.25
			c7.929-0.729,8.52-1.321,9.25-9.25C247.957,96.587,248.549,97.179,256.478,97.908z"/>
		<path style="fill:#FFFFFF;" d="M288.977,135.158c-7.929,0.729-8.52,1.321-9.25,9.25c-0.729-7.929-1.321-8.521-9.25-9.25
			c7.929-0.73,8.521-1.321,9.25-9.25C280.457,133.837,281.049,134.429,288.977,135.158z"/>
		<path style="fill:#FFFFFF;" d="M334.227,63.908c-7.929,0.73-8.52,1.321-9.25,9.25c-0.729-7.929-1.321-8.521-9.25-9.25
			c7.929-0.729,8.521-1.321,9.25-9.25C325.707,62.587,326.299,63.179,334.227,63.908z"/>
		<path style="fill:#FFFFFF;" d="M60.728,170.408c-7.929,0.729-8.52,1.321-9.25,9.25c-0.73-7.929-1.321-8.521-9.25-9.25
			c7.929-0.73,8.52-1.321,9.25-9.25C52.208,169.087,52.799,169.679,60.728,170.408z"/>
		<path style="fill:#FFFFFF;" d="M485.228,215.408c-7.93,0.729-8.521,1.321-9.25,9.25c-0.73-7.929-1.322-8.521-9.25-9.25
			c7.928-0.73,8.52-1.321,9.25-9.25C476.707,214.087,477.299,214.679,485.228,215.408z"/>
		<path style="fill:#FFFFFF;" d="M195.644,149.825c-7.929,0.73-8.52,1.321-9.25,9.25c-0.73-7.929-1.321-8.52-9.25-9.25
			c7.929-0.729,8.52-1.321,9.25-9.25C187.124,148.504,187.715,149.096,195.644,149.825z"/>
		<path style="fill:#FFFFFF;" d="M358.477,181.158c-7.929,0.729-8.52,1.321-9.25,9.25c-0.729-7.929-1.321-8.521-9.25-9.25
			c7.929-0.73,8.521-1.321,9.25-9.25C349.957,179.837,350.549,180.429,358.477,181.158z"/>
		<path style="fill:#FFFFFF;" d="M420.228,222.409c-7.93,0.73-8.521,1.321-9.25,9.25c-0.73-7.929-1.322-8.52-9.25-9.25
			c7.928-0.729,8.52-1.321,9.25-9.25C411.707,221.088,412.299,221.68,420.228,222.409z"/>
		<path style="fill:#FFFFFF;" d="M145.561,26.409c-7.929,0.729-8.52,1.321-9.25,9.25c-0.73-7.929-1.321-8.52-9.25-9.25
			c7.929-0.729,8.52-1.321,9.25-9.25C137.041,25.088,137.632,25.68,145.561,26.409z"/>
		<path style="fill:#FFFFFF;" d="M266.102,129.491c-3.178,0.292-3.415,0.529-3.707,3.708c-0.293-3.179-0.53-3.416-3.709-3.708
			c3.179-0.292,3.416-0.529,3.709-3.708C262.686,128.962,262.924,129.199,266.102,129.491z"/>
		<path style="fill:#FFFFFF;" d="M259.435,87.491c-3.179,0.292-3.416,0.529-3.709,3.708c-0.292-3.179-0.529-3.416-3.707-3.708
			c3.178-0.292,3.415-0.529,3.707-3.708C256.02,86.962,256.257,87.199,259.435,87.491z"/>
		<path style="fill:#FFFFFF;" d="M200.102,142.825c-3.178,0.292-3.416,0.529-3.708,3.708c-0.292-3.179-0.53-3.416-3.708-3.708
			c3.178-0.292,3.416-0.529,3.708-3.708C196.686,142.296,196.924,142.533,200.102,142.825z"/>
		<path style="fill:#FFFFFF;" d="M358.435,147.491c-3.179,0.292-3.416,0.529-3.709,3.708c-0.292-3.179-0.529-3.416-3.707-3.708
			c3.178-0.292,3.415-0.529,3.707-3.708C355.02,146.962,355.257,147.199,358.435,147.491z"/>
		<path style="fill:#FFFFFF;" d="M449.353,168.409c-3.18,0.292-3.416,0.529-3.709,3.708c-0.293-3.179-0.529-3.416-3.707-3.708
			c3.178-0.292,3.414-0.529,3.707-3.708C445.938,167.88,446.174,168.117,449.353,168.409z"/>
		<path style="fill:#FFFFFF;" d="M404.685,276.409c-3.178,0.292-3.416,0.529-3.707,3.708c-0.293-3.179-0.531-3.416-3.709-3.708
			c3.178-0.292,3.416-0.529,3.709-3.708C401.27,275.88,401.508,276.117,404.685,276.409z"/>
		<path style="fill:#FFFFFF;" d="M460.685,290.409c-3.178,0.292-3.416,0.529-3.707,3.708c-0.293-3.179-0.531-3.416-3.709-3.708
			c3.178-0.292,3.416-0.529,3.709-3.708C457.27,289.88,457.508,290.117,460.685,290.409z"/>
		<path style="fill:#FFFFFF;" d="M188.561,50.158c-3.178,0.292-3.415,0.529-3.708,3.708c-0.292-3.179-0.53-3.416-3.708-3.708
			c3.178-0.292,3.416-0.529,3.708-3.708C185.145,49.629,185.382,49.866,188.561,50.158z"/>
		<path style="fill:#FFFFFF;" d="M90.686,69.075c-3.178,0.292-3.416,0.529-3.708,3.708c-0.292-3.179-0.53-3.416-3.708-3.708
			c3.178-0.292,3.416-0.529,3.708-3.708C87.27,68.546,87.507,68.783,90.686,69.075z"/>
		<path style="fill:#FFFFFF;" d="M168.686,149.742c-3.178,0.292-3.415,0.529-3.708,3.708c-0.292-3.179-0.53-3.416-3.708-3.708
			c3.178-0.292,3.416-0.529,3.708-3.708C165.27,149.213,165.507,149.45,168.686,149.742z"/>
		<path style="fill:#FFFFFF;" d="M82.686,228.409c-3.178,0.292-3.416,0.529-3.708,3.708c-0.292-3.179-0.53-3.416-3.708-3.708
			c3.178-0.292,3.416-0.529,3.708-3.708C79.27,227.88,79.507,228.117,82.686,228.409z"/>
		<path style="fill:#FFFFFF;" d="M44.019,363.075c-3.178,0.292-3.416,0.529-3.708,3.708c-0.292-3.179-0.53-3.416-3.708-3.708
			c3.178-0.292,3.416-0.529,3.708-3.708C40.604,362.546,40.841,362.783,44.019,363.075z"/>
		<path style="fill:#FFFFFF;" d="M187.581,236.158c-3.178,0.292-3.416,0.529-3.708,3.708c-0.292-3.179-0.53-3.416-3.708-3.708
			c3.178-0.292,3.416-0.529,3.708-3.708C184.165,235.629,184.403,235.866,187.581,236.158z"/>
		<path style="fill:#FFFFFF;" d="M174.936,260.158c-6.606,0.606-7.1,1.101-7.708,7.708c-0.608-6.607-1.101-7.102-7.708-7.708
			c6.607-0.606,7.1-1.101,7.708-7.708C167.835,259.058,168.329,259.552,174.936,260.158z"/>
	</g>
</g>
</svg>
